<svg width="17" height="17" viewBox="0 0 17 17" fill="none" xmlns="http://www.w3.org/2000/svg">
<path d="M5.80005 2.5C6.96005 2.5 8.07338 3.04022 8.80005 3.89355C9.45678 3.12235 10.4296 2.60669 11.467 2.51465V3.85645C10.7794 3.95062 10.1353 4.3282 9.73071 4.8623C9.50341 5.16245 9.17753 5.40625 8.80103 5.40625C8.42673 5.40615 8.10247 5.16539 7.87622 4.86719C7.40398 4.24475 6.61044 3.83301 5.80005 3.83301C4.46672 3.83301 3.46704 4.83366 3.46704 6.16699C3.46728 8.09353 5.56053 9.99308 8.73364 12.8662L8.80005 12.9336L8.86646 12.8662C9.84584 11.9794 10.5318 11.2308 11.2756 10.5H13.1331C12.1937 11.5248 11.1738 12.5777 9.76685 13.8535L8.80005 14.7334L7.83325 13.8604L7.80688 13.8359C4.38853 10.7296 2.13325 8.68036 2.13306 6.16699C2.13306 4.11366 3.74672 2.5 5.80005 2.5ZM14.1331 5.83301H16.1331V7.16602H14.1331V9.16602H12.8V7.16602H10.8V5.83301H12.8V3.83301H14.1331V5.83301Z" fill="white"/>
</svg>
