<svg width="24" height="24" viewBox="0 0 24 24" fill="none" xmlns="http://www.w3.org/2000/svg">
<path fill-rule="evenodd" clip-rule="evenodd" d="M14 6V8H12H10V6C10 4.89543 10.8954 4 12 4C13.1046 4 14 4.89543 14 6ZM8 8V6C8 3.79086 9.79086 2 12 2C14.2091 2 16 3.79086 16 6V8H18.9546H21L20.5714 10L18.6775 18.8381C18.2823 20.6824 16.6525 22 14.7663 22H9.23366C7.34751 22 5.71766 20.6824 5.32245 18.8381L3.42857 10L3 8H5.0454H8ZM16 10H14H12H10H8H5.47397L7.27806 18.4191C7.47566 19.3412 8.29059 20 9.23366 20H14.7663C15.7094 20 16.5243 19.3412 16.7219 18.4191L18.526 10H16Z" fill="white"/>
</svg>
