<svg width="17" height="16" viewBox="0 0 17 16" fill="none" xmlns="http://www.w3.org/2000/svg">
<path d="M7.16665 10.9999L11.1666 7.99992L7.16665 4.99992V10.9999ZM8.49998 1.33325C4.81998 1.33325 1.83331 4.31992 1.83331 7.99992C1.83331 11.6799 4.81998 14.6666 8.49998 14.6666C12.18 14.6666 15.1666 11.6799 15.1666 7.99992C15.1666 4.31992 12.18 1.33325 8.49998 1.33325ZM8.49998 13.3333C5.55998 13.3333 3.16665 10.9399 3.16665 7.99992C3.16665 5.05992 5.55998 2.66659 8.49998 2.66659C11.44 2.66659 13.8333 5.05992 13.8333 7.99992C13.8333 10.9399 11.44 13.3333 8.49998 13.3333Z" fill="white"/>
</svg>
