<svg width="24" height="24" viewBox="0 0 24 24" fill="none" xmlns="http://www.w3.org/2000/svg">
<path d="M15.7135 12.7093C16.6987 11.9384 17.4178 10.8813 17.7708 9.68501C18.1238 8.48872 18.0931 7.21276 17.6829 6.03464C17.2728 4.85652 16.5036 3.83483 15.4824 3.11171C14.4612 2.38859 13.2387 2 11.9851 2C10.7315 2 9.50908 2.38859 8.48788 3.11171C7.46668 3.83483 6.6975 4.85652 6.28735 6.03464C5.8772 7.21276 5.84649 8.48872 6.19947 9.68501C6.55245 10.8813 7.27158 11.9384 8.25682 12.7093C6.5686 13.382 5.09557 14.4976 3.99477 15.9374C2.89396 17.3771 2.20665 19.0869 2.0061 20.8846V22H4.00006L4.01598 21.1045C4.23665 19.1508 5.17335 17.3465 6.64713 16.0362C8.1209 14.7259 10.0284 14.0016 12.0052 14.0016C13.9821 14.0016 15.8896 14.7259 17.3633 16.0362C18.8371 17.3465 19.7738 19.1508 19.9945 21.1045L20 22C20 22 20.751 21.9955 20.9994 21.994H21.11H21.9943V20.8946C21.7928 19.0918 21.1018 17.3776 19.9953 15.9357C18.8889 14.4937 17.4087 13.3784 15.7135 12.7093ZM11.9851 11.9997C11.1901 11.9997 10.4129 11.7653 9.75188 11.326C9.09084 10.8867 8.57562 10.2624 8.27137 9.53189C7.96712 8.8014 7.88752 7.9976 8.04262 7.22212C8.19773 6.44665 8.58057 5.73433 9.14274 5.17524C9.70492 4.61615 10.4212 4.23541 11.2009 4.08115C11.9807 3.9269 12.7889 4.00607 13.5234 4.30865C14.2579 4.61122 14.8857 5.12362 15.3274 5.78103C15.7691 6.43845 16.0049 7.21137 16.0049 8.00204C16.0049 9.06229 15.5814 10.0791 14.8275 10.8288C14.0737 11.5785 13.0512 11.9997 11.9851 11.9997Z" fill="white"/>
</svg>
