<svg width="17" height="16" viewBox="0 0 17 16" fill="none" xmlns="http://www.w3.org/2000/svg">
<path d="M12.7747 5.84217L13.3488 5.27436C13.4676 5.15556 13.5343 4.99444 13.5343 4.82643C13.5343 4.65842 13.4676 4.49729 13.3488 4.37849C13.23 4.25969 13.0689 4.19295 12.9009 4.19295C12.7328 4.19295 12.5717 4.25969 12.4529 4.37849L11.8851 4.95261C11.0009 4.26862 9.91471 3.89751 8.79686 3.89751C7.67901 3.89751 6.59278 4.26862 5.70861 4.95261L5.13449 4.37218C5.01486 4.25338 4.85292 4.18697 4.68432 4.18756C4.51572 4.18815 4.35426 4.2557 4.23546 4.37533C4.11666 4.49497 4.05025 4.6569 4.05084 4.8255C4.05144 4.9941 4.11898 5.15556 4.23862 5.27436L4.81904 5.84848C4.12696 6.73019 3.75143 7.819 3.75282 8.93989C3.75076 9.74455 3.94112 10.538 4.30803 11.2542C4.67494 11.9703 5.20775 12.5884 5.86204 13.0568C6.51633 13.5252 7.27312 13.8303 8.06931 13.9468C8.8655 14.0633 9.678 13.9878 10.4391 13.7264C11.2001 13.4651 11.8877 13.0256 12.4444 12.4446C13.001 11.8636 13.4108 11.1579 13.6393 10.3864C13.8679 9.61487 13.9086 8.79988 13.7582 8.0094C13.6078 7.21892 13.2706 6.47585 12.7747 5.84217ZM8.80001 12.7253C8.05133 12.7253 7.31947 12.5033 6.69696 12.0873C6.07446 11.6714 5.58927 11.0802 5.30277 10.3885C5.01626 9.6968 4.9413 8.93569 5.08736 8.20139C5.23342 7.4671 5.59394 6.79261 6.12334 6.26321C6.65273 5.73381 7.32723 5.37329 8.06152 5.22723C8.79581 5.08117 9.55693 5.15613 10.2486 5.44264C10.9403 5.72915 11.5315 6.21433 11.9475 6.83683C12.3634 7.45934 12.5854 8.19121 12.5854 8.93989C12.5854 9.94383 12.1866 10.9067 11.4767 11.6166C10.7668 12.3265 9.80396 12.7253 8.80001 12.7253ZM7.53822 3.2618H10.0618C10.2291 3.2618 10.3896 3.19533 10.5079 3.07701C10.6262 2.95869 10.6927 2.79822 10.6927 2.6309C10.6927 2.46357 10.6262 2.3031 10.5079 2.18479C10.3896 2.06647 10.2291 2 10.0618 2H7.53822C7.37089 2 7.21042 2.06647 7.0921 2.18479C6.97379 2.3031 6.90732 2.46357 6.90732 2.6309C6.90732 2.79822 6.97379 2.95869 7.0921 3.07701C7.21042 3.19533 7.37089 3.2618 7.53822 3.2618ZM9.43091 7.04719C9.43091 6.87987 9.36444 6.71939 9.24613 6.60108C9.12781 6.48276 8.96734 6.41629 8.80001 6.41629C8.63269 6.41629 8.47222 6.48276 8.3539 6.60108C8.23558 6.71939 8.16912 6.87987 8.16912 7.04719V8.23959C8.02626 8.36736 7.92557 8.5355 7.88036 8.72175C7.83516 8.908 7.84757 9.10359 7.91596 9.28263C7.98435 9.46168 8.10549 9.61573 8.26335 9.72442C8.42121 9.83311 8.60836 9.8913 8.80001 9.8913C8.99167 9.8913 9.17882 9.83311 9.33668 9.72442C9.49454 9.61573 9.61568 9.46168 9.68407 9.28263C9.75245 9.10359 9.76487 8.908 9.71966 8.72175C9.67446 8.5355 9.57377 8.36736 9.43091 8.23959V7.04719Z" fill="#5D5FEF"/>
</svg>
