<svg width="24" height="24" viewBox="0 0 24 24" fill="none" xmlns="http://www.w3.org/2000/svg">
<path d="M11 21H7C4.79086 21 3 19.2091 3 17V13H11V21ZM21 13V17C21 19.2091 19.2091 21 17 21H13V13H21ZM4.90039 17C4.90039 18.1598 5.8402 19.0996 7 19.0996H9.09961V14.9004H4.90039V17ZM14.9004 19.0996H17C18.1598 19.0996 19.0996 18.1598 19.0996 17V14.9004H14.9004V19.0996ZM11 11H3V7C3 4.79086 4.79086 3 7 3H11V11ZM17 3C19.2091 3 21 4.79086 21 7C21 9.20914 19.2091 11 17 11C14.7909 11 13 9.20914 13 7C13 4.79086 14.7909 3 17 3ZM7 4.90039C5.8402 4.90039 4.90039 5.8402 4.90039 7V9.09961H9.09961V4.90039H7ZM17 4.90039C15.8402 4.90039 14.9004 5.8402 14.9004 7C14.9004 8.1598 15.8402 9.09961 17 9.09961C18.1598 9.09961 19.0996 8.1598 19.0996 7C19.0996 5.8402 18.1598 4.90039 17 4.90039Z" fill="white"/>
</svg>
