<svg width="24" height="24" viewBox="0 0 24 24" fill="none" xmlns="http://www.w3.org/2000/svg">
<path d="M11.9998 4C16.1919 4 19.7721 6.99308 21.7126 11.1543L22.1072 12L21.7126 12.8457C19.7721 17.0069 16.1919 20 11.9998 20C7.8078 19.9999 4.22835 17.0067 2.28784 12.8457L1.89331 12L2.28784 11.1543C4.22835 6.99325 7.8078 4.00015 11.9998 4ZM11.9998 6C8.8299 6.00015 5.83029 8.29018 4.10034 12C5.83029 15.7098 8.8299 17.9999 11.9998 18C15.1698 18 18.1701 15.71 19.9001 12C18.1701 8.29 15.1698 6 11.9998 6ZM11.9998 8C13.0606 8 14.0787 8.42173 14.8289 9.17188C15.5788 9.92199 15.9998 10.9393 15.9998 12C15.9998 12.7911 15.7655 13.5649 15.3259 14.2227C14.8865 14.8802 14.2617 15.3926 13.531 15.6953C12.8001 15.9981 11.9954 16.0772 11.2195 15.9229C10.4437 15.7685 9.73098 15.3875 9.17163 14.8281C8.6123 14.2687 8.23123 13.5561 8.0769 12.7803C7.92262 12.0045 8.00185 11.2005 8.30444 10.4697C8.60719 9.73882 9.12028 9.11335 9.77808 8.67383C10.4357 8.23451 11.2089 8.00006 11.9998 8ZM12.7654 10.1523C12.4 10.001 11.998 9.96099 11.6101 10.0381C11.2221 10.1153 10.8654 10.3062 10.5857 10.5859C10.3062 10.8655 10.116 11.2217 10.0388 11.6094C9.96165 11.9973 10.0007 12.4002 10.1521 12.7656C10.3035 13.131 10.5606 13.4434 10.8894 13.6631C11.2181 13.8826 11.6045 13.9999 11.9998 14C12.5301 14 13.0388 13.789 13.4138 13.4141C13.7889 13.039 13.9998 12.5304 13.9998 12C13.9998 11.6044 13.8826 11.2176 13.6628 10.8887C13.4431 10.5599 13.1308 10.3037 12.7654 10.1523Z" fill="white"/>
</svg>
